# xmcd
#
# Track frame offsets:
#	150
#	10360
#	19750
#	27142
#	43177
#	54912
#	72710
#	87797
#	100702
#	114467
#	133570
#	145970
#
# Disc length: 2134 seconds
#
# Revision: 0
# Processed by: cddbd v1.5PL3 Copyright (c) Steve Scherf et al.
# Submitted via: audiograbber 1.80
#
DISCID=9d08540c
DTITLE=Cascatinha E Inhana - Show India
DYEAR=1900
DGENRE=
TTITLE0=Sertaneja
TTITLE1=Carinhoso
TTITLE2=Guacyra
TTITLE3=Ave Maria do Sertão
TTITLE4=La Paloma
TTITLE5=Índia
TTITLE6=Meu Primeiro Amor
TTITLE7=Guarânia da Lua Nova
TTITLE8=Flor do Cafezal
TTITLE9=Dois Corações
TTITLE10=Colcha de Retalhos
TTITLE11=Esstamos Apaixonados
EXTD=
EXTT0=
EXTT1=
EXTT2=
EXTT3=
EXTT4=
EXTT5=
EXTT6=
EXTT7=
EXTT8=
EXTT9=
EXTT10=
EXTT11=
PLAYORDER=
